<svg width="701" height="652" viewBox="0 0 701 652" fill="none" xmlns="http://www.w3.org/2000/svg">
<rect width="701" height="652" fill="white"/>
<rect x="184.5" y="158.5" width="329" height="295" fill="white" stroke="black"/>
<line x1="183.666" y1="453.628" x2="513.666" y2="157.628" stroke="black"/>
<line x1="184.334" y1="157.628" x2="349.334" y2="305.628" stroke="black"/>
<path d="M335.739 425.62C333.717 427.545 331.694 428.924 329.67 429.759C327.645 430.593 325.766 430.901 324.033 430.681L326.554 433.329C326.222 433.645 325.867 433.983 325.49 434.342C325.128 434.687 324.773 435.024 324.426 435.355C324.094 435.671 323.807 435.944 323.566 436.174L314.775 426.939L317.491 424.354C317.591 424.459 317.699 424.572 317.814 424.693C317.914 424.799 318.023 424.897 318.138 424.988C320.169 426.88 322.348 427.855 324.675 427.912C327.017 427.955 329.486 426.741 332.081 424.27C334.088 422.359 335.244 420.31 335.548 418.122C335.852 415.934 335.221 414.017 333.656 412.373C332.621 411.286 331.48 410.676 330.23 410.542C328.996 410.394 327.666 410.553 326.24 411.019C324.814 411.485 323.303 412.104 321.707 412.875C320.112 413.646 318.45 414.394 316.723 415.117C313.685 416.398 311.047 417.011 308.809 416.956C306.571 416.872 304.54 415.872 302.716 413.955C301.351 412.522 300.485 410.872 300.118 409.007C299.767 407.126 299.962 405.186 300.704 403.186C301.445 401.185 302.774 399.272 304.691 397.448C306.184 396.026 307.716 394.885 309.284 394.024C310.867 393.15 312.744 392.658 314.912 392.549C314.654 392.278 314.295 391.9 313.835 391.417C313.361 390.92 313.124 390.671 313.124 390.671C313.365 390.441 313.645 390.175 313.961 389.873C314.278 389.572 314.61 389.27 314.956 388.969C315.303 388.639 315.635 388.323 315.952 388.021L323.343 395.785L320.695 398.306C320.522 398.154 320.356 398.01 320.197 397.873C320.053 397.723 319.91 397.572 319.766 397.421C318.212 395.909 316.348 395.311 314.174 395.626C312.015 395.926 309.879 397.082 307.767 399.093C305.851 400.917 304.773 402.792 304.534 404.716C304.295 406.641 304.829 408.29 306.137 409.663C307.157 410.734 308.299 411.33 309.563 411.449C310.828 411.539 312.196 411.33 313.668 410.82C315.14 410.282 316.711 409.606 318.381 408.792C320.053 407.949 321.811 407.138 323.658 406.358C325.355 405.633 327.003 405.158 328.6 404.932C330.197 404.706 331.719 404.825 333.167 405.287C334.629 405.736 336.014 406.647 337.321 408.02C338.83 409.604 339.794 411.418 340.216 413.462C340.623 415.491 340.461 417.572 339.731 419.706C339.001 421.81 337.671 423.781 335.739 425.62ZM355.321 405.942L353.187 403.702L354.432 402.517C355.383 401.612 355.99 400.904 356.253 400.395C356.501 399.871 356.548 399.452 356.394 399.139C356.24 398.825 356.033 398.533 355.775 398.261L334.055 375.447L329.143 380.123C328.012 381.2 327.247 382.014 326.851 382.564C326.454 383.114 326.282 383.538 326.333 383.834C326.4 384.115 326.57 384.399 326.843 384.686C327.274 385.139 327.769 385.659 328.33 386.248C328.891 386.807 329.451 387.38 330.011 387.969C330.572 388.557 331.082 389.093 331.541 389.576L329.165 391.838L320.847 383.102C320.847 383.102 321.224 382.758 321.978 382.069C322.717 381.365 323.622 380.518 324.693 379.527C325.749 378.522 326.768 377.552 327.748 376.618C328.729 375.685 329.461 374.988 329.944 374.528L338.68 366.211C339.374 365.55 340.197 364.767 341.147 363.862C342.084 362.942 343.019 362.037 343.955 361.146C344.891 360.226 345.699 359.443 346.378 358.796L354.695 367.533L352.296 369.817L347.857 365.154C347.455 364.732 347.093 364.472 346.771 364.376C346.464 364.265 346.019 364.417 345.434 364.83C344.849 365.243 343.953 366.024 342.746 367.173L338.174 371.525L360.131 394.589C360.447 394.921 360.736 395.149 360.998 395.273C361.261 395.368 361.632 395.274 362.11 394.991C362.574 394.693 363.267 394.106 364.187 393.23L365.455 392.023L367.588 394.264C366.713 395.097 365.837 395.93 364.962 396.763C364.088 397.567 363.01 398.564 361.728 399.756C361.637 399.842 361.335 400.144 360.822 400.662C360.309 401.151 359.697 401.732 358.988 402.408C358.294 403.068 357.615 403.729 356.95 404.391C356.271 405.037 355.728 405.555 355.321 405.942ZM377.343 384.977L375.21 382.736L376.296 381.702C377.216 380.825 377.801 380.14 378.048 379.645C378.311 379.136 378.366 378.724 378.211 378.411C378.057 378.098 377.836 377.79 377.549 377.489L357.186 356.1C356.755 355.647 356.38 355.343 356.059 355.188C355.74 355.004 355.334 355.045 354.841 355.313C354.363 355.566 353.671 356.124 352.766 356.986L351.68 358.02L349.546 355.78C350.27 355.12 350.903 354.546 351.445 354.058C352.003 353.556 352.538 353.061 353.051 352.572C354.832 350.877 356.25 349.527 357.306 348.521C358.348 347.501 359.171 346.688 359.776 346.084C360.38 345.48 360.916 344.956 361.384 344.51L363.517 346.751L362.408 347.807C361.502 348.669 360.918 349.354 360.655 349.864C360.407 350.359 360.353 350.77 360.492 351.097C360.632 351.396 360.853 351.703 361.155 352.02L381.819 373.725C382.178 374.103 382.496 374.361 382.772 374.5C383.035 374.625 383.397 374.552 383.861 374.284C384.325 373.986 385.017 373.399 385.938 372.522L387.047 371.467L389.18 373.707C388.244 374.598 387.339 375.445 386.465 376.249C385.606 377.038 384.512 378.065 383.184 379.329C381.977 380.478 380.921 381.498 380.015 382.39C379.124 383.267 378.233 384.129 377.343 384.977ZM398.958 364.399L396.824 362.158L398.069 360.973C399.02 360.068 399.627 359.361 399.89 358.851C400.138 358.327 400.185 357.908 400.031 357.595C399.877 357.282 399.67 356.989 399.412 356.718L377.692 333.903L372.78 338.579C371.649 339.657 370.884 340.47 370.488 341.021C370.091 341.571 369.919 341.994 369.97 342.29C370.037 342.572 370.207 342.856 370.48 343.142C370.911 343.595 371.406 344.116 371.967 344.704C372.528 345.263 373.088 345.837 373.648 346.425C374.209 347.014 374.719 347.549 375.178 348.032L372.802 350.295L364.484 341.558C364.484 341.558 364.861 341.214 365.615 340.525C366.354 339.821 367.259 338.974 368.33 337.984C369.386 336.978 370.405 336.008 371.385 335.075C372.366 334.141 373.098 333.444 373.581 332.985L382.317 324.667C383.011 324.006 383.834 323.224 384.784 322.319C385.721 321.398 386.656 320.493 387.592 319.602C388.528 318.682 389.336 317.899 390.015 317.253L398.332 325.989L395.933 328.273L391.494 323.611C391.092 323.188 390.73 322.929 390.408 322.832C390.101 322.722 389.656 322.873 389.071 323.286C388.486 323.699 387.59 324.48 386.383 325.629L381.811 329.982L403.768 353.045C404.084 353.377 404.373 353.605 404.635 353.73C404.898 353.824 405.269 353.73 405.747 353.447C406.211 353.149 406.904 352.562 407.824 351.686L409.092 350.479L411.225 352.72C410.35 353.553 409.474 354.386 408.599 355.219C407.725 356.023 406.647 357.021 405.365 358.212C405.274 358.299 404.972 358.601 404.459 359.118C403.945 359.607 403.334 360.189 402.625 360.864C401.931 361.525 401.252 362.186 400.587 362.847C399.908 363.494 399.365 364.011 398.958 364.399ZM437.997 328.268C434.752 331.356 431.38 333.373 427.879 334.319C424.393 335.25 420.962 335.166 417.585 334.066C414.209 332.937 411.084 330.863 408.211 327.845C405.281 324.767 403.364 321.5 402.462 318.045C401.545 314.574 401.615 311.142 402.671 307.75C403.727 304.357 405.741 301.246 408.713 298.416C410.418 296.792 412.312 295.579 414.395 294.775C416.463 293.957 418.703 293.666 421.114 293.902L418.486 290.19L421.089 287.712L429.557 296.607L426.932 299.106C424.739 297.196 422.254 296.369 419.478 296.624C416.716 296.866 414.053 298.208 411.488 300.65C409.285 302.747 407.857 305.085 407.204 307.662C406.537 310.224 406.656 312.872 407.561 315.606C408.452 318.325 410.119 320.967 412.561 323.532C415.032 326.127 417.61 327.944 420.296 328.982C422.982 330.021 425.621 330.27 428.213 329.73C430.805 329.189 433.202 327.87 435.405 325.773C438.514 322.814 440.35 320.03 440.916 317.42C441.481 314.811 440.371 312.014 437.585 309.028L440.642 306.981L445.996 313.058C445.65 316.351 444.762 319.21 443.332 321.635C441.887 324.046 440.109 326.257 437.997 328.268ZM452.802 313.137L450.669 310.896L451.733 309.884C452.653 309.007 453.23 308.314 453.464 307.804C453.697 307.294 453.722 306.868 453.539 306.524C453.356 306.181 453.107 305.843 452.791 305.511L432.277 283.964C431.947 283.617 431.643 283.389 431.366 283.279C431.089 283.139 430.719 283.204 430.256 283.472C429.792 283.741 429.108 284.306 428.203 285.168L427.139 286.181L425.006 283.94C425.987 283.006 427.095 281.965 428.332 280.817C429.568 279.668 430.73 278.577 431.816 277.543C431.907 277.457 432.269 277.112 432.903 276.508C433.537 275.876 434.232 275.2 434.986 274.482C435.741 273.734 436.338 273.152 436.775 272.735L438.908 274.976L437.822 276.01C436.902 276.887 436.295 277.564 436.004 278.043C435.727 278.508 435.666 278.897 435.82 279.21C435.96 279.509 436.231 279.869 436.634 280.291L445.102 289.186L460.243 274.771L451.603 265.695C450.899 264.956 450.293 264.712 449.786 264.965C449.294 265.204 448.505 265.84 447.418 266.874L446.332 267.909L444.199 265.668C445.315 264.634 446.415 263.615 447.501 262.61C448.572 261.59 449.591 260.621 450.557 259.701C450.632 259.63 451.017 259.263 451.711 258.602C452.406 257.912 453.176 257.165 454.021 256.36C454.851 255.541 455.508 254.901 455.991 254.442L458.124 256.682L457.06 257.695C456.155 258.557 455.564 259.22 455.287 259.685C454.996 260.135 454.906 260.508 455.017 260.806C455.142 261.089 455.377 261.411 455.722 261.773L476.042 283.117C476.444 283.539 476.789 283.887 477.077 284.159C477.366 284.402 477.763 284.426 478.269 284.232C478.775 284.009 479.549 283.402 480.59 282.411L481.654 281.398L483.787 283.639C482.776 284.601 481.781 285.534 480.801 286.439C479.836 287.329 478.682 288.413 477.339 289.691C476.192 290.783 475.218 291.724 474.418 292.515C473.618 293.306 472.81 294.089 471.995 294.865L469.862 292.624L470.948 291.59C471.869 290.714 472.453 290.028 472.701 289.533C472.95 289.009 472.982 288.575 472.799 288.231C472.631 287.874 472.368 287.506 472.008 287.129L462.549 277.193L447.407 291.608L456.996 301.68C457.829 302.555 458.484 302.881 458.961 302.657C459.438 302.433 460.235 301.789 461.352 300.726L462.438 299.692L464.571 301.932C463.742 302.722 462.927 303.483 462.128 304.215C461.329 304.947 460.334 305.881 459.142 307.015C457.784 308.308 456.637 309.415 455.7 310.335C454.764 311.255 453.798 312.189 452.802 313.137Z" fill="black"/>
</svg>
