<svg width="474" height="102" viewBox="0 0 474 102" fill="none" xmlns="http://www.w3.org/2000/svg">
<path d="M34.84 101.4C27.4 101.4 20.08 99.28 12.88 95.04L2.68 100.2H0.0400002V69.36H2.68L13 91.68C19.64 96.4 27.24 98.76 35.8 98.76C42.84 98.76 48.64 96.92 53.2 93.24C57.84 89.48 60.16 84.24 60.16 77.52C60.16 72.64 58.68 68.8 55.72 66C52.76 63.12 47.96 60.84 41.32 59.16L21.4 54C14.44 52.16 9.2 49.04 5.68 44.64C2.16 40.16 0.4 34.88 0.4 28.8C0.4 23.28 1.48 18.4 3.64 14.16C5.88 9.84 9.12 6.52 13.36 4.2C17.6 1.79999 22.64 0.599994 28.48 0.599994C35.76 0.599994 42.28 1.83999 48.04 4.32L56.8 0.599994H59.44V25.08H56.8L48.16 7.56C42.16 4.68 35.64 3.24 28.6 3.24C21.64 3.24 16.16 5.04 12.16 8.64C8.16 12.16 6.16 16.84 6.16 22.68C6.16 27 7.56 30.4 10.36 32.88C13.24 35.36 17.44 37.32 22.96 38.76L44.44 44.4C51.4 46.16 56.56 49.2 59.92 53.52C63.36 57.76 65.08 64.24 65.08 72.96C65.08 81.84 62.32 88.8 56.8 93.84C51.36 98.88 44.04 101.4 34.84 101.4ZM96.2819 99V96.48L107.322 94.68V6H87.5219L78.4019 29.76H74.9219V3H153.042V29.76H149.442L140.442 6H120.522V94.68L131.562 96.48V99H96.2819ZM160.745 99V96.48L171.785 94.68V7.31999L160.745 5.63999V3H196.025V5.63999L184.985 7.31999V94.68L196.025 96.48V99H160.745ZM225.188 99V96.48L236.228 94.68V6H216.428L207.308 29.76H203.828V3H281.948V29.76H278.348L269.348 6H249.428V94.68L260.468 96.48V99H225.188ZM334.772 101.4C326.052 101.4 318.412 99.28 311.852 95.04C305.292 90.8 300.212 84.88 296.612 77.28C293.092 69.68 291.332 60.92 291.332 51C291.332 41.08 293.132 32.32 296.732 24.72C300.412 17.04 305.572 11.12 312.212 6.96C318.932 2.72 326.652 0.599994 335.372 0.599994C338.812 0.599994 342.292 1.19999 345.812 2.39999C349.412 3.6 352.652 5.28 355.532 7.44L363.572 0.599994H366.092V30.36H363.572L356.132 11.76C353.332 9.19999 350.052 7.15999 346.292 5.63999C342.612 4.11999 338.972 3.35999 335.372 3.35999C329.772 3.35999 324.812 4.79999 320.492 7.68C316.252 10.56 312.932 14.76 310.532 20.28C308.132 25.8 306.932 32.36 306.932 39.96V61.92C306.932 69.52 308.092 76.08 310.412 81.6C312.732 87.12 315.972 91.36 320.132 94.32C324.292 97.2 329.172 98.64 334.772 98.64C338.852 98.64 342.932 97.76 347.012 96C351.092 94.16 354.492 91.72 357.212 88.68L364.172 69.36H366.692V100.2H364.172L355.532 94.08C352.652 96.4 349.372 98.2 345.692 99.48C342.012 100.76 338.372 101.4 334.772 101.4ZM379.066 99V96.48L390.106 94.68V7.31999L379.066 5.63999V3H414.346V5.63999L403.306 7.31999V46.68H448.906V7.31999L437.746 5.63999V3H473.266V5.63999L462.106 7.31999V94.68L473.266 96.48V99H437.746V96.48L448.906 94.68V49.68H403.306V94.68L414.346 96.48V99H379.066Z" fill="black"/>
</svg>
